<svg width="49" height="49" viewBox="0 0 49 49" fill="none" xmlns="http://www.w3.org/2000/svg">
<path fill-rule="evenodd" clip-rule="evenodd" d="M38.4879 13.1712C38.6625 12.9968 38.801 12.7898 38.8956 12.5618C38.9902 12.3339 39.0389 12.0896 39.0391 11.8428C39.0392 11.5961 38.9908 11.3517 38.8965 11.1236C38.8022 10.8956 38.6639 10.6884 38.4895 10.5138C38.3151 10.3392 38.1081 10.2006 37.8801 10.1061C37.6522 10.0115 37.4079 9.96273 37.1611 9.96258C36.9144 9.96243 36.67 10.0109 36.4419 10.1052C36.2139 10.1995 36.0067 10.3378 35.8321 10.5121L24.5 21.8442L13.1712 10.5121C12.8186 10.1595 12.3403 9.96142 11.8417 9.96142C11.343 9.96142 10.8648 10.1595 10.5121 10.5121C10.1595 10.8647 9.96143 11.343 9.96143 11.8417C9.96143 12.3403 10.1595 12.8186 10.5121 13.1712L21.8442 24.5L10.5121 35.8288C10.3375 36.0034 10.199 36.2107 10.1046 36.4388C10.0101 36.6669 9.96143 36.9114 9.96143 37.1583C9.96143 37.4052 10.0101 37.6497 10.1046 37.8779C10.199 38.106 10.3375 38.3133 10.5121 38.4879C10.8648 38.8405 11.343 39.0386 11.8417 39.0386C12.0886 39.0386 12.3331 38.9899 12.5612 38.8954C12.7893 38.801 12.9966 38.6625 13.1712 38.4879L24.5 27.1558L35.8321 38.4879C36.1847 38.84 36.6628 39.0377 37.1611 39.0374C37.6595 39.0371 38.1373 38.8388 38.4895 38.4862C38.8417 38.1336 39.0394 37.6555 39.0391 37.1572C39.0387 36.6588 38.8405 36.181 38.4879 35.8288L27.1558 24.5L38.4879 13.1712Z" fill="#FEFEFE"/>
</svg>
