<svg width="49" height="49" viewBox="0 0 49 49" fill="none" xmlns="http://www.w3.org/2000/svg">
<path d="M1.45471 24.5C1.45471 34.5297 7.88596 43.0281 16.7672 46.1672V2.83282C7.88596 5.97189 1.45471 14.4703 1.45471 24.5Z" fill="#428BC1"/>
<path d="M47.3922 24.5C47.3922 14.4703 41.0375 5.97189 32.0797 2.83282V46.1672C41.0375 43.0281 47.3922 34.5297 47.3922 24.5Z" fill="#ED4C5C"/>
<path d="M16.7672 46.1672C19.1406 47.0094 21.7438 47.4688 24.4235 47.4688C27.1031 47.4688 29.7063 47.0094 32.0797 46.1672V2.83281C29.7063 1.99063 27.1797 1.53125 24.4235 1.53125C21.6672 1.53125 19.1406 1.99063 16.7672 2.83281V46.1672Z" fill="white"/>
</svg>
