<svg width="49" height="49" viewBox="0 0 49 49" fill="none" xmlns="http://www.w3.org/2000/svg">
<path d="M16.8437 46.1672V35.6016L8.95776 41.4203C11.1781 43.4875 13.8578 45.0953 16.8437 46.1672ZM32.1562 46.1672C35.1421 45.0953 37.8218 43.4875 40.0421 41.4203L32.1562 35.525V46.1672ZM2.83276 32.1562C3.06245 32.9219 3.3687 33.6109 3.75151 34.3766L6.73745 32.1562H2.83276ZM42.2625 32.1562L45.2484 34.3766C45.5546 33.6875 45.8609 32.9219 46.1671 32.1562H42.2625Z" fill="#2A5F9E"/>
<path d="M17.9922 29.0938H1.9906C2.22029 30.1656 2.52654 31.1609 2.83279 32.1562H6.73748L3.75154 34.3766C4.36404 35.6781 5.0531 36.8266 5.89529 37.975L13.7812 32.1562H16.8437V33.6875L7.88591 40.2719L8.95779 41.3438L16.8437 35.6016V46.1672C17.839 46.55 18.8344 46.7797 19.9062 47.0094V29.0938H17.9922ZM47.0094 29.0938H29.0937V47.0094C30.1656 46.7797 31.1609 46.4734 32.1562 46.1672V35.6016L40.0422 41.3438C41.114 40.3484 42.0328 39.2766 42.9515 38.1281L34.7594 32.1562H39.9656L44.6359 35.6016C44.8656 35.2188 45.0953 34.7594 45.2484 34.3766L42.2625 32.1562H46.1672C46.4734 31.1609 46.7797 30.1656 47.0094 29.0938Z" fill="white"/>
<path d="M5.89526 37.975C6.50776 38.8172 7.12026 39.5828 7.80933 40.3484L16.8437 33.7641V32.2328H13.7812L5.89526 37.975ZM34.8359 32.1562L43.0281 38.1281C43.3343 37.7453 43.564 37.3625 43.8703 36.9797C43.9468 36.9031 43.9468 36.8266 44.0234 36.8266C44.2531 36.4437 44.5593 35.9844 44.789 35.6016L39.9656 32.1562H34.8359Z" fill="#ED4C5C"/>
<path d="M32.1562 2.83282V13.3984L40.0421 7.5797C37.8218 5.51251 35.1421 3.9047 32.1562 2.83282ZM16.8437 2.83282C13.8578 3.9047 11.1781 5.51251 8.95776 7.5797L16.8437 13.475V2.83282ZM46.1671 16.8438C45.9374 16.0781 45.6312 15.3891 45.2484 14.6235L42.2625 16.8438H46.1671ZM6.73745 16.8438L3.75151 14.6235C3.44526 15.3891 3.13901 16.0781 2.83276 16.8438H6.73745Z" fill="#2A5F9E"/>
<path d="M31.0078 19.9062H46.9328C46.7031 18.8344 46.3969 17.839 46.0906 16.8437H42.1859L45.1719 14.6234C44.5594 13.3219 43.8703 12.1734 43.0281 11.025L35.2187 16.8437H32.1562V15.3125L41.114 8.7281L40.0422 7.65623L32.1562 13.3984V2.83279C31.1609 2.44998 30.1656 2.22029 29.0937 1.9906V19.9062H31.0078ZM1.9906 19.9062H19.9062V1.9906C18.8344 2.22029 17.839 2.52654 16.8437 2.83279V13.3984L8.95779 7.65623C7.88591 8.65154 6.96716 9.72341 6.04841 10.8719L14.2406 16.8437H9.03435L4.36404 13.3984C4.13435 13.7812 3.90466 14.2406 3.75154 14.6234L6.73748 16.8437H2.83279C2.52654 17.839 2.22029 18.8344 1.9906 19.9062Z" fill="white"/>
<path d="M43.1047 11.025C42.4922 10.1828 41.8797 9.41718 41.1906 8.65155L32.1562 15.2359V16.7672H35.2187L43.1047 11.025ZM14.164 16.8437L6.04841 10.8719C5.74216 11.2547 5.51248 11.6375 5.20623 12.0203C5.12966 12.0969 5.12966 12.1734 5.0531 12.1734C4.82341 12.5562 4.51716 13.0156 4.28748 13.3984L8.95779 16.8437H14.164Z" fill="#ED4C5C"/>
<path d="M47.0094 19.9062H29.0938V1.99062C27.6391 1.68437 26.1078 1.53125 24.5 1.53125C22.8922 1.53125 21.3609 1.68437 19.9062 1.99062V19.9062H1.99062C1.68437 21.3609 1.53125 22.8922 1.53125 24.5C1.53125 26.1078 1.68437 27.6391 1.99062 29.0938H19.9062V47.0094C21.3609 47.3156 22.8922 47.4688 24.5 47.4688C26.1078 47.4688 27.6391 47.3156 29.0938 47.0094V29.0938H47.0094C47.3156 27.6391 47.4688 26.1078 47.4688 24.5C47.4688 22.8922 47.3156 21.3609 47.0094 19.9062Z" fill="#ED4C5C"/>
</svg>
