<svg width="49" height="49" viewBox="0 0 49 49" fill="none" xmlns="http://www.w3.org/2000/svg">
<path d="M4.08333 12.25C4.08333 11.7085 4.29844 11.1892 4.68132 10.8063C5.06421 10.4234 5.58352 10.2083 6.125 10.2083H42.875C43.4165 10.2083 43.9358 10.4234 44.3187 10.8063C44.7016 11.1892 44.9167 11.7085 44.9167 12.25C44.9167 12.7915 44.7016 13.3108 44.3187 13.6937C43.9358 14.0766 43.4165 14.2917 42.875 14.2917H6.125C5.58352 14.2917 5.06421 14.0766 4.68132 13.6937C4.29844 13.3108 4.08333 12.7915 4.08333 12.25ZM4.08333 24.5653C4.08333 24.0238 4.29844 23.5045 4.68132 23.1217C5.06421 22.7388 5.58352 22.5237 6.125 22.5237H42.875C43.4165 22.5237 43.9358 22.7388 44.3187 23.1217C44.7016 23.5045 44.9167 24.0238 44.9167 24.5653C44.9167 25.1068 44.7016 25.6261 44.3187 26.009C43.9358 26.3919 43.4165 26.607 42.875 26.607H6.125C5.58352 26.607 5.06421 26.3919 4.68132 26.009C4.29844 25.6261 4.08333 25.1068 4.08333 24.5653ZM6.125 34.841C5.58352 34.841 5.06421 35.0561 4.68132 35.439C4.29844 35.8219 4.08333 36.3412 4.08333 36.8827C4.08333 37.4242 4.29844 37.9435 4.68132 38.3264C5.06421 38.7093 5.58352 38.9244 6.125 38.9244H42.875C43.4165 38.9244 43.9358 38.7093 44.3187 38.3264C44.7016 37.9435 44.9167 37.4242 44.9167 36.8827C44.9167 36.3412 44.7016 35.8219 44.3187 35.439C43.9358 35.0561 43.4165 34.841 42.875 34.841H6.125Z" fill="#FEFEFE"/>
</svg>
