<svg width="70" height="70" viewBox="0 0 70 70" fill="none" xmlns="http://www.w3.org/2000/svg">
<path d="M35 21.875C37.1875 13.2398 45.4494 8.83066 63.4375 8.75C63.7251 8.74892 64.01 8.80476 64.2759 8.91431C64.5418 9.02385 64.7834 9.18494 64.9867 9.38829C65.1901 9.59163 65.3511 9.83321 65.4607 10.0991C65.5702 10.365 65.6261 10.6499 65.625 10.9375V50.3125C65.625 50.8927 65.3945 51.4491 64.9843 51.8593C64.5741 52.2695 64.0177 52.5 63.4375 52.5C45.9375 52.5 39.1768 56.0287 35 61.25M35 21.875C32.8125 13.2398 24.5506 8.83066 6.5625 8.75C6.27493 8.74892 5.98999 8.80476 5.7241 8.91431C5.45821 9.02385 5.21663 9.18494 5.01329 9.38829C4.80994 9.59163 4.64885 9.83321 4.5393 10.0991C4.42976 10.365 4.37392 10.6499 4.375 10.9375V50.0486C4.375 51.3994 5.21172 52.5 6.5625 52.5C24.0625 52.5 30.8479 56.0547 35 61.25M35 21.875V61.25" stroke="#FEFEFE" stroke-width="6.25" stroke-linecap="round" stroke-linejoin="round"/>
</svg>
