<svg width="70" height="70" viewBox="0 0 70 70" fill="none" xmlns="http://www.w3.org/2000/svg">
<path d="M17.5 61.25C22.3325 61.25 26.25 57.3325 26.25 52.5C26.25 47.6675 22.3325 43.75 17.5 43.75C12.6675 43.75 8.75 47.6675 8.75 52.5C8.75 57.3325 12.6675 61.25 17.5 61.25Z" stroke="#FEFEFE" stroke-width="6.25" stroke-linecap="round" stroke-linejoin="round"/>
<path d="M26.25 52.5V14.5833" stroke="#FEFEFE" stroke-width="6.25" stroke-linecap="round" stroke-linejoin="round"/>
<path d="M61.25 8.75L26.25 14.5833M61.25 20.4167L26.25 26.25" stroke="#FEFEFE" stroke-width="6.25" stroke-linecap="round"/>
<path d="M52.5 55.4167C57.3325 55.4167 61.25 51.4991 61.25 46.6667C61.25 41.8342 57.3325 37.9167 52.5 37.9167C47.6675 37.9167 43.75 41.8342 43.75 46.6667C43.75 51.4991 47.6675 55.4167 52.5 55.4167Z" stroke="#FEFEFE" stroke-width="6.25" stroke-linecap="round" stroke-linejoin="round"/>
<path d="M61.25 46.6667V8.75" stroke="#FEFEFE" stroke-width="6.25" stroke-linecap="round" stroke-linejoin="round"/>
</svg>
