<svg width="79" height="79" viewBox="0 0 79 79" fill="none" xmlns="http://www.w3.org/2000/svg">
<path d="M55.9583 64.1875C55.9583 58.7332 48.5883 54.3125 39.5 54.3125C30.4117 54.3125 23.0417 58.7332 23.0417 64.1875M69.125 54.3125C69.125 50.2637 65.0631 46.7845 59.25 45.2604M9.875 54.3125C9.875 50.2637 13.9369 46.7845 19.75 45.2604M59.25 32.0477C60.2252 31.1855 61.0203 30.1391 61.5897 28.9686C62.159 27.7981 62.4913 26.5266 62.5675 25.2272C62.6437 23.9278 62.4622 22.6262 62.0336 21.3971C61.6049 20.1681 60.9375 19.036 60.0697 18.0658C59.202 17.0956 58.151 16.3066 56.9772 15.7441C55.8034 15.1815 54.5299 14.8566 53.2301 14.788C51.9303 14.7193 50.6297 14.9084 49.4032 15.3442C48.1767 15.78 47.0484 16.4539 46.0833 17.3273M19.75 32.0477C17.8155 30.297 16.6524 27.8519 16.5148 25.2464C16.3773 22.641 17.2764 20.087 19.0158 18.1423C20.7552 16.1977 23.1935 15.0204 25.7981 14.8677C28.4027 14.715 30.9619 15.5992 32.9167 17.3273M39.5 44.4375C36.881 44.4375 34.3692 43.3971 32.5173 41.5452C30.6654 39.6933 29.625 37.1815 29.625 34.5625C29.625 31.9435 30.6654 29.4317 32.5173 27.5798C34.3692 25.7279 36.881 24.6875 39.5 24.6875C42.119 24.6875 44.6308 25.7279 46.4827 27.5798C48.3346 29.4317 49.375 31.9435 49.375 34.5625C49.375 37.1815 48.3346 39.6933 46.4827 41.5452C44.6308 43.3971 42.119 44.4375 39.5 44.4375Z" stroke="#FEFEFE" stroke-width="4.9375" stroke-linecap="round" stroke-linejoin="round"/>
</svg>
