<svg width="49" height="49" viewBox="0 0 49 49" fill="none" xmlns="http://www.w3.org/2000/svg">
<path d="M42.875 40.8333C42.875 41.3748 42.6599 41.8941 42.277 42.277C41.8941 42.6599 41.3748 42.875 40.8333 42.875H8.16667C7.62518 42.875 7.10588 42.6599 6.72299 42.277C6.3401 41.8941 6.125 41.3748 6.125 40.8333V19.3754C6.12478 19.0643 6.19568 18.7572 6.33226 18.4777C6.46885 18.1982 6.66751 17.9535 6.91308 17.7625L23.2464 5.05721C23.6048 4.77841 24.0459 4.62704 24.5 4.62704C24.9541 4.62704 25.3952 4.77841 25.7536 5.05721L42.0869 17.7625C42.3325 17.9535 42.5312 18.1982 42.6677 18.4777C42.8043 18.7572 42.8752 19.0643 42.875 19.3754V40.8333ZM38.7917 38.7917V20.3718L24.5 9.25692L10.2083 20.3718V38.7917H38.7917Z" fill="#FEFEFE"/>
</svg>
