<svg width="70" height="70" viewBox="0 0 70 70" fill="none" xmlns="http://www.w3.org/2000/svg">
<path d="M35 7.29167C38.4303 7.29062 41.7706 8.38919 44.5306 10.4261C47.2906 12.4631 49.325 15.3311 50.3352 18.6093C51.3454 21.8875 51.2781 25.4031 50.1433 28.6403C49.0085 31.8774 46.8659 34.6655 44.03 36.5954C48.9523 38.4008 53.2217 41.6381 56.2885 45.8906C59.3553 50.1431 61.0792 55.2161 61.2383 60.4567C61.2532 60.7476 61.2098 61.0385 61.1108 61.3124C61.0117 61.5863 60.8589 61.8377 60.6614 62.0517C60.4639 62.2658 60.2256 62.4383 59.9606 62.559C59.6955 62.6798 59.409 62.7464 59.1179 62.7549C58.8267 62.7635 58.5368 62.7138 58.2651 62.6088C57.9934 62.5038 57.7455 62.3456 57.5357 62.1435C57.326 61.9414 57.1588 61.6994 57.0438 61.4318C56.9288 61.1641 56.8685 60.8763 56.8663 60.585C56.6926 54.9017 54.3128 49.5094 50.2313 45.5508C46.1499 41.5921 40.6874 39.3782 35.0015 39.3782C29.3156 39.3782 23.8531 41.5921 19.7716 45.5508C15.6901 49.5094 13.3104 54.9017 13.1367 60.585C13.1193 61.1652 12.8721 61.7146 12.4496 62.1126C12.027 62.5105 11.4637 62.7243 10.8835 62.7069C10.3034 62.6895 9.7539 62.4423 9.35597 62.0198C8.95804 61.5972 8.74426 61.0339 8.76167 60.4538C8.92135 55.2137 10.6455 50.1413 13.7123 45.8894C16.7791 41.6375 21.0481 38.4006 25.97 36.5954C23.1341 34.6655 20.9915 31.8774 19.8567 28.6403C18.7219 25.4031 18.6546 21.8875 19.6648 18.6093C20.675 15.3311 22.7094 12.4631 25.4694 10.4261C28.2294 8.38919 31.5697 7.29062 35 7.29167ZM23.3333 23.3333C23.3333 26.4275 24.5625 29.395 26.7504 31.5829C28.9383 33.7708 31.9058 35 35 35C38.0942 35 41.0617 33.7708 43.2496 31.5829C45.4375 29.395 46.6667 26.4275 46.6667 23.3333C46.6667 20.2391 45.4375 17.2717 43.2496 15.0838C41.0617 12.8958 38.0942 11.6667 35 11.6667C31.9058 11.6667 28.9383 12.8958 26.7504 15.0838C24.5625 17.2717 23.3333 20.2391 23.3333 23.3333Z" fill="#FEFEFE"/>
</svg>
