<svg width="70" height="70" viewBox="0 0 70 70" fill="none" xmlns="http://www.w3.org/2000/svg">
<path d="M8.75 59.1792V14.5833C8.75 13.0362 9.36458 11.5525 10.4585 10.4585C11.5525 9.36458 13.0362 8.75 14.5833 8.75H55.4167C56.9638 8.75 58.4475 9.36458 59.5415 10.4585C60.6354 11.5525 61.25 13.0362 61.25 14.5833V43.75C61.25 45.2971 60.6354 46.7808 59.5415 47.8748C58.4475 48.9688 56.9638 49.5833 55.4167 49.5833H23.2196C22.3453 49.5834 21.4822 49.7801 20.6941 50.1587C19.906 50.5374 19.2131 51.0883 18.6667 51.7708L11.8679 60.27C11.6417 60.5536 11.3329 60.7598 10.9843 60.8602C10.6357 60.9606 10.2645 60.9502 9.92209 60.8304C9.57968 60.7106 9.28296 60.4873 9.07298 60.1915C8.86299 59.8957 8.75013 59.5419 8.75 59.1792Z" stroke="#FEFEFE" stroke-width="4.375"/>
<path d="M30.625 29.1667H24.7917C24.0181 29.1667 23.2763 28.8594 22.7293 28.3124C22.1823 27.7654 21.875 27.0235 21.875 26.25V23.3333C21.875 22.5598 22.1823 21.8179 22.7293 21.2709C23.2763 20.7239 24.0181 20.4167 24.7917 20.4167H27.7083C28.4819 20.4167 29.2237 20.7239 29.7707 21.2709C30.3177 21.8179 30.625 22.5598 30.625 23.3333V29.1667ZM30.625 29.1667C30.625 32.0833 27.7083 35 24.7917 37.9167M48.125 29.1667H42.2917C41.5181 29.1667 40.7763 28.8594 40.2293 28.3124C39.6823 27.7654 39.375 27.0235 39.375 26.25V23.3333C39.375 22.5598 39.6823 21.8179 40.2293 21.2709C40.7763 20.7239 41.5181 20.4167 42.2917 20.4167H45.2083C45.9819 20.4167 46.7237 20.7239 47.2707 21.2709C47.8177 21.8179 48.125 22.5598 48.125 23.3333V29.1667ZM48.125 29.1667C48.125 32.0833 45.2083 35 42.2917 37.9167" stroke="#FEFEFE" stroke-width="4.375" stroke-linecap="round"/>
</svg>
