<svg width="70" height="70" viewBox="0 0 70 70" fill="none" xmlns="http://www.w3.org/2000/svg">
<path d="M59.0625 28.9844H23.7016L57.2934 20.1168C57.5028 20.0616 57.6993 19.9655 57.8714 19.834C58.0436 19.7024 58.1879 19.5381 58.2962 19.3505C58.4045 19.1629 58.4746 18.9557 58.5024 18.7409C58.5302 18.526 58.5152 18.3078 58.4582 18.0988L56.227 9.89571C55.9571 8.93058 55.318 8.11055 54.448 7.61312C53.578 7.1157 52.5472 6.98089 51.5785 7.2379L9.93125 18.2301C9.44652 18.3559 8.99177 18.5772 8.59362 18.881C8.19547 19.1848 7.86192 19.565 7.6125 19.9992C7.3642 20.4256 7.20342 20.8971 7.13957 21.3864C7.07572 21.8756 7.11007 22.3727 7.24062 22.8484L9.29688 30.4445V54.6875C9.29688 55.7028 9.70019 56.6765 10.4181 57.3944C11.136 58.1123 12.1097 58.5156 13.125 58.5156H56.875C57.8903 58.5156 58.864 58.1123 59.5819 57.3944C60.2998 56.6765 60.7031 55.7028 60.7031 54.6875V30.625C60.7031 30.1899 60.5303 29.7726 60.2226 29.4649C59.9149 29.1572 59.4976 28.9844 59.0625 28.9844ZM34.3848 15.1703L43.4082 20.3848L31.8062 23.4473L22.7828 18.2328L34.3848 15.1703ZM52.4316 10.4098C52.5621 10.3736 52.7016 10.3892 52.8208 10.4534C52.94 10.5176 53.0299 10.6254 53.0715 10.7543L54.868 17.366L47.9227 19.1953L38.8992 13.9809L52.4316 10.4098ZM10.4535 21.6398C10.4873 21.5812 10.5326 21.5299 10.5866 21.489C10.6406 21.4481 10.7023 21.4185 10.768 21.402L18.282 19.4141L27.3055 24.6313L12.2117 28.6234L10.407 21.9871C10.3909 21.9291 10.3867 21.8684 10.3947 21.8087C10.4027 21.749 10.4227 21.6916 10.4535 21.6398ZM57.4219 54.6875C57.4219 54.8325 57.3643 54.9716 57.2617 55.0742C57.1591 55.1768 57.02 55.2344 56.875 55.2344H13.125C12.98 55.2344 12.8409 55.1768 12.7383 55.0742C12.6357 54.9716 12.5781 54.8325 12.5781 54.6875V32.2656H57.4219V54.6875Z" fill="#FEFEFE"/>
</svg>
