<svg width="49" height="49" viewBox="0 0 49 49" fill="none" xmlns="http://www.w3.org/2000/svg">
<path d="M22.5196 5.28792C23.073 4.81924 23.7748 4.56204 24.5 4.56204C25.2252 4.56204 25.927 4.81924 26.4804 5.28792L41.7929 18.279C42.132 18.5665 42.4044 18.9243 42.5913 19.3277C42.7781 19.731 42.875 20.1702 42.875 20.6147V39.8125C42.875 40.6247 42.5523 41.4037 41.978 41.978C41.4037 42.5523 40.6247 42.875 39.8125 42.875H28.0729C27.6668 42.875 27.2773 42.7137 26.9902 42.4265C26.703 42.1393 26.5417 41.7499 26.5417 41.3438V28.5833H22.4583V41.3438C22.4583 41.7499 22.297 42.1393 22.0098 42.4265C21.7227 42.7137 21.3332 42.875 20.9271 42.875H9.1875C8.37527 42.875 7.59632 42.5523 7.02199 41.978C6.44766 41.4037 6.125 40.6247 6.125 39.8125V20.6147C6.125 19.7164 6.52108 18.8609 7.20708 18.279L22.5196 5.28792ZM24.5 7.62358L9.1875 20.6147V39.8125H19.3958V27.0521C19.3958 26.646 19.5572 26.2565 19.8443 25.9693C20.1315 25.6822 20.521 25.5208 20.9271 25.5208H28.0729C28.479 25.5208 28.8685 25.6822 29.1557 25.9693C29.4428 26.2565 29.6042 26.646 29.6042 27.0521V39.8125H39.8125V20.6147L24.5 7.62358Z" fill="#FEFEFE"/>
</svg>
