<svg width="46" height="46" viewBox="0 0 46 46" fill="none" xmlns="http://www.w3.org/2000/svg">
<path d="M23.4677 7.66667C24.4912 7.67242 27.0518 7.69733 29.7735 7.80658L30.7395 7.84875C33.4784 7.97717 36.2154 8.1995 37.5743 8.57708C39.3856 9.08692 40.8077 10.5704 41.2888 12.4526C42.0555 15.4426 42.1513 21.2731 42.1628 22.6857L42.1647 22.977V23.3105C42.1513 24.7231 42.0555 30.5555 41.2888 33.5436C40.802 35.4315 39.3779 36.9169 37.5743 37.4191C36.2154 37.7967 33.4784 38.019 30.7395 38.1474L29.7735 38.1915C27.0518 38.2988 24.4912 38.3257 23.4677 38.3295L23.0172 38.3314H22.5285C20.3627 38.318 11.3045 38.2202 8.42183 37.4191C6.6125 36.9092 5.18841 35.4257 4.70733 33.5436C3.94066 30.5536 3.84483 24.7231 3.83333 23.3105V22.6857C3.84483 21.2731 3.94066 15.4407 4.70733 12.4526C5.19416 10.5647 6.61825 9.07925 8.42375 8.579C11.3045 7.77592 20.3646 7.67817 22.5304 7.66667H23.4677ZM19.1647 16.2917V29.7083L30.6647 23L19.1647 16.2917Z" fill="#FEFEFE"/>
</svg>
