<svg width="46" height="46" viewBox="0 0 46 46" fill="none" xmlns="http://www.w3.org/2000/svg">
<path d="M24.9704 3.83334C27.1266 3.83909 28.221 3.85059 29.166 3.87743L29.5378 3.89084C29.9671 3.90618 30.3907 3.92534 30.9025 3.94834C32.9418 4.04418 34.3333 4.36618 35.5542 4.83959C36.8192 5.32643 37.8849 5.98576 38.9505 7.04951C39.9252 8.00764 40.6793 9.16664 41.1605 10.4458C41.6339 11.6668 41.9559 13.0583 42.0517 15.0995C42.0747 15.6093 42.0939 16.0329 42.1092 16.4642L42.1207 16.836C42.1495 17.779 42.161 18.8734 42.1648 21.0297L42.1667 22.4595V24.9703C42.1714 26.3684 42.1567 27.7664 42.1226 29.164L42.1111 29.5358C42.0958 29.9671 42.0766 30.3907 42.0536 30.9005C41.9578 32.9418 41.632 34.3313 41.1605 35.5542C40.6807 36.8341 39.9264 37.9934 38.9505 38.9505C37.9921 39.9248 36.8332 40.6789 35.5542 41.1604C34.3333 41.6338 32.9418 41.9558 30.9025 42.0517C30.4477 42.0731 29.9928 42.0923 29.5378 42.1092L29.166 42.1207C28.221 42.1475 27.1266 42.1609 24.9704 42.1648L23.5405 42.1667H21.0316C19.633 42.1715 18.2343 42.1568 16.836 42.1226L16.4642 42.1111C16.0092 42.0939 15.5543 42.0741 15.0995 42.0517C13.0602 41.9558 11.6687 41.6338 10.4459 41.1604C9.16683 40.6801 8.0083 39.9258 7.05146 38.9505C6.07597 37.9927 5.32114 36.8337 4.83963 35.5542C4.36621 34.3333 4.04421 32.9418 3.94838 30.9005C3.92703 30.4457 3.90786 29.9908 3.89088 29.5358L3.8813 29.164C3.84598 27.7664 3.83 26.3684 3.83338 24.9703V21.0297C3.82803 19.6317 3.84209 18.2336 3.87555 16.836L3.88896 16.4642C3.9043 16.0329 3.92346 15.6093 3.94646 15.0995C4.0423 13.0583 4.3643 11.6687 4.83771 10.4458C5.31902 9.16533 6.07535 8.00597 7.05338 7.04951C8.00997 6.07484 9.16774 5.32065 10.4459 4.83959C11.6687 4.36618 13.0583 4.04418 15.0995 3.94834C15.6094 3.92534 16.0349 3.90618 16.4642 3.89084L16.836 3.87934C18.2337 3.84529 19.6317 3.83059 21.0297 3.83526L24.9704 3.83334ZM23 13.4167C20.4584 13.4167 18.0208 14.4263 16.2236 16.2236C14.4264 18.0208 13.4167 20.4584 13.4167 23C13.4167 25.5417 14.4264 27.9792 16.2236 29.7764C18.0208 31.5737 20.4584 32.5833 23 32.5833C25.5417 32.5833 27.9793 31.5737 29.7765 29.7764C31.5737 27.9792 32.5834 25.5417 32.5834 23C32.5834 20.4584 31.5737 18.0208 29.7765 16.2236C27.9793 14.4263 25.5417 13.4167 23 13.4167ZM23 17.25C23.7551 17.2499 24.5029 17.3985 25.2006 17.6873C25.8982 17.9762 26.5322 18.3996 27.0662 18.9335C27.6002 19.4673 28.0239 20.1011 28.3129 20.7987C28.602 21.4963 28.7509 22.244 28.751 22.9991C28.7511 23.7542 28.6025 24.5019 28.3137 25.1996C28.0248 25.8972 27.6014 26.5312 27.0675 27.0652C26.5337 27.5992 25.8999 28.0229 25.2023 28.312C24.5047 28.601 23.7571 28.7499 23.002 28.75C21.477 28.75 20.0144 28.1442 18.9361 27.0659C17.8578 25.9875 17.252 24.525 17.252 23C17.252 21.475 17.8578 20.0125 18.9361 18.9341C20.0144 17.8558 21.477 17.25 23.002 17.25M33.0645 10.5417C32.429 10.5417 31.8197 10.7941 31.3704 11.2434C30.921 11.6927 30.6686 12.3021 30.6686 12.9375C30.6686 13.5729 30.921 14.1823 31.3704 14.6316C31.8197 15.0809 32.429 15.3333 33.0645 15.3333C33.6999 15.3333 34.3093 15.0809 34.7586 14.6316C35.2079 14.1823 35.4603 13.5729 35.4603 12.9375C35.4603 12.3021 35.2079 11.6927 34.7586 11.2434C34.3093 10.7941 33.6999 10.5417 33.0645 10.5417Z" fill="#FEFEFE"/>
</svg>
